Coordinates
nRows=147
nColumns=2
inDegrees=yes
endheader
time	ankle_angle_r	
2.43734	  0.107040	
2.49984	  0.086974	
2.56234	  0.139883	
2.62483	  0.155440	
2.68733	  0.149345	
2.74982	  0.129176	
2.81232	  0.086983	
2.87482	  0.092376	
2.93731	  0.123905	
2.99981	  0.165637	
3.0623	  0.210884	
3.1248	  0.220823	
3.1873	  0.199682	
3.24979	  0.161172	
3.31229	  0.140946	
3.37478	  0.141741	
3.43728	  0.155942	
3.49978	  0.193047	
3.56227	  0.204979	
3.62477	  0.191671	
3.68726	  0.156836	
3.74976	  0.095344	
3.81226	  0.072316	
3.87475	  0.074733	
3.93725	  0.087418	
3.99974	  0.123859	
4.06224	  0.145132	
4.12474	  0.164183	
4.18723	  0.155575	
4.24973	  0.098234	
4.31222	  0.052738	
4.37472	  0.026022	
4.43722	  0.048607	
4.49971	  0.111139	
4.56221	  0.116326	
4.6247	  0.088093	
4.6872	  0.082746	
4.7497	  0.075535	
4.81219	  0.057126	
4.87469	  0.077559	
4.93718	  0.158053	
4.99968	  0.207667	
5.06218	  0.192194	
5.12467	  0.158465	
5.18717	  0.128391	
5.24966	  0.135605	
5.31216	  0.147872	
5.37466	  0.160421	
5.43715	  0.204068	
5.49965	  0.213980	
5.56214	  0.210645	
5.62464	  0.209094	
5.68714	  0.163128	
5.74963	  0.128782	
5.81213	  0.122089	
5.87462	  0.139544	
5.93712	  0.168992	
5.99962	  0.165071	
6.06211	  0.162499	
6.12461	  0.134967	
6.1871	  0.077716	
6.2496	  0.075788	
6.3121	  0.093406	
6.37459	  0.098391	
6.43709	  0.118107	
6.49958	  0.155823	
6.56208	  0.198504	
6.62458	  0.182283	
6.68707	  0.128980	
6.74957	  0.127896	
6.81206	  0.171344	
6.87456	  0.207661	
6.93706	  0.211537	
6.99955	  0.211860	
7.06205	  0.199987	
7.12454	  0.157643	
7.18704	  0.146374	
7.24954	  0.156565	
7.31203	  0.181963	
7.37453	  0.227216	
7.43702	  0.205219	
7.49952	  0.156160	
7.56202	  0.132956	
7.62451	  0.095633	
7.68701	  0.080399	
7.7495	  0.074359	
7.812	  0.075756	
7.8745	  0.122655	
7.93699	  0.160348	
7.99949	  0.162289	
8.06198	  0.122384	
8.12448	  0.082469	
8.18698	  0.080264	
8.24947	  0.048580	
8.31197	  0.038455	
8.37446	  0.097836	
8.43696	  0.137718	
8.49946	  0.128059	
8.56195	  0.084184	
8.62445	  0.067975	
8.68694	  0.105963	
8.74944	  0.139537	
8.81194	  0.176292	
8.87443	  0.211314	
8.93693	  0.214915	
8.99942	  0.194234	
9.06192	  0.161192	
9.12442	  0.150759	
9.18691	  0.161316	
9.24941	  0.190133	
9.3119	  0.225246	
9.3744	  0.220721	
9.4369	  0.214520	
9.49939	  0.199260	
9.56189	  0.152406	
9.62438	  0.135714	
9.68688	  0.126678	
9.74938	  0.124162	
9.81187	  0.136576	
9.87437	  0.121175	
9.93686	  0.116292	
9.99936	  0.102044	
10.0619	  0.070873	
10.1244	  0.064475	
10.1868	  0.031617	
10.2493	  0.026230	
10.3118	  0.082455	
10.3743	  0.109665	
10.4368	  0.128581	
10.4993	  0.126289	
10.5618	  0.068147	
10.6243	  0.032211	
10.6868	  0.044380	
10.7493	  0.079705	
10.8118	  0.117354	
10.8743	  0.139100	
10.9368	  0.143043	
10.9993	  0.146077	
11.0618	  0.158548	
11.1243	  0.151102	
11.1868	  0.160451	
11.2493	  0.207437	
11.3118	  0.224125	
11.3743	  0.223642	
11.4368	  0.193548	
11.4993	  0.134368	
11.5618	  0.152220	
